<?xml version="1.0" standalone="no"?>
<!DOCTYPE svg PUBLIC "-//W3C//DTD SVG 1.1//EN" "http://www.w3.org/Graphics/SVG/1.1/DTD/svg11.dtd"><svg t="1724914534010"
  class="icon" viewBox="0 0 1024 1024" version="1.1" xmlns="http://www.w3.org/2000/svg" p-id="4260"
  xmlns:xlink="http://www.w3.org/1999/xlink" width="200" height="200">
  <path
    d="M597.333333 768c23.466667 0 42.666667-19.2 42.666667-42.666667V448c0-23.466667-19.2-42.666667-42.666667-42.666667s-42.666667 19.2-42.666666 42.666667v277.333333c0 23.466667 19.2 42.666667 42.666666 42.666667z m-170.666666 0c23.466667 0 42.666667-19.2 42.666666-42.666667V448c0-23.466667-19.2-42.666667-42.666666-42.666667s-42.666667 19.2-42.666667 42.666667v277.333333c0 23.466667 19.2 42.666667 42.666667 42.666667z m426.666666-533.333333h-134.4l-61.866666-125.866667c-6.4-14.933333-21.333333-23.466667-38.4-23.466667H405.333333c-17.066667 0-32 8.533333-38.4 23.466667L305.066667 234.666667H170.666667c-23.466667 0-42.666667 19.2-42.666667 42.666666s19.2 42.666667 42.666667 42.666667h21.333333v533.333333c0 46.933333 38.4 85.333333 85.333333 85.333334h469.333334c46.933333 0 85.333333-38.4 85.333333-85.333334V320h21.333333c23.466667 0 42.666667-19.2 42.666667-42.666667s-19.2-42.666667-42.666667-42.666666zM430.933333 170.666667h162.133334l32 64H398.933333l32-64zM746.666667 853.333333H277.333333V320h469.333334v533.333333z"
    p-id="4261"></path>
</svg>