<?xml version="1.0" standalone="no"?><!DOCTYPE svg PUBLIC "-//W3C//DTD SVG 1.1//EN" "http://www.w3.org/Graphics/SVG/1.1/DTD/svg11.dtd"><svg t="1724982642695" class="icon" viewBox="0 0 1024 1024" version="1.1" xmlns="http://www.w3.org/2000/svg" p-id="9916" xmlns:xlink="http://www.w3.org/1999/xlink" width="200" height="200"><path d="M751.104 658.944c103.466667 3.968 145.28-43.776 179.072-99.498667 12.928-19.882667 31.872-18.901333 21.888 14.933334-51.712 193.024-231.808 325.333333-427.776 325.333333-236.8 0-429.781333-183.04-441.728-420.821333-14.933333-297.472 230.826667-396.970667 369.066667-338.261334 86.442667 37.461333 85.290667 139.605333 84.181333 234.581334-0.341333 28.586667-0.64 56.490667 1.408 81.792 5.973333 115.370667 99.498667 197.973333 213.888 201.941333zM344.234667 353.536c0 18.901333 14.933333 33.792 33.792 33.792a34.176 34.176 0 0 0 33.834666-33.792 33.536 33.536 0 0 0-33.834666-33.834667 33.536 33.536 0 0 0-33.792 33.834667z" fill="#000000" p-id="9917"></path><path d="M899.370667 540.586667c-4.992 10.922667-6.997333 34.773333 8.96 14.890666 24.832-29.866667 44.757333-68.650667 51.712-120.362666 13.909333-92.544-32.853333-125.354667-67.669334-114.432-44.757333 13.952-47.744 73.642667-16.896 119.381333 19.882667 29.866667 39.808 63.701333 23.893334 100.48z" fill="#000000" p-id="9918"></path></svg>